HIERARCHY
ROOT Hips
{
	OFFSET 0.000000 0.000000 0.000000
	CHANNELS 6 Xposition Yposition Zposition Xrotation Yrotation Zrotation
	JOINT LeftUpLeg_virtual
	{
		OFFSET 0.000000 0.000000 0.000000
		CHANNELS 3 Xrotation Yrotation Zrotation
		JOINT LeftUpLeg
		{
			OFFSET 15.427100 -6.655098 0.678600
			CHANNELS 3 Xrotation Yrotation Zrotation
			JOINT LeftLeg
			{
				OFFSET 4.081073 -39.591068 13.024000
				CHANNELS 3 Xrotation Yrotation Zrotation
				JOINT LeftFoot
				{
					OFFSET -4.081074 -37.707932 -15.979700
					CHANNELS 3 Xrotation Yrotation Zrotation
					JOINT LeftToeBase
					{
						OFFSET 5.346399 -15.068900 20.645000
						CHANNELS 3 Xrotation Yrotation Zrotation
						JOINT LeftToe_End
						{
							OFFSET 2.754700 0.931300 11.300900
							CHANNELS 3 Xrotation Yrotation Zrotation
							End Site
							{
								OFFSET 0 0 0
							}
						}
					}
				}
			}
		}
	}
	JOINT RightUpLeg_virtual
	{
		OFFSET 0.000000 0.000000 0.000000
		CHANNELS 3 Xrotation Yrotation Zrotation
		JOINT RightUpLeg
		{
			OFFSET -15.569500 -6.655098 0.678600
			CHANNELS 3 Xrotation Yrotation Zrotation
			JOINT RightLeg
			{
				OFFSET -4.081825 -39.591045 13.023800
				CHANNELS 3 Xrotation Yrotation Zrotation
				JOINT RightFoot
				{
					OFFSET 4.081824 -37.707954 -15.979600
					CHANNELS 3 Xrotation Yrotation Zrotation
					JOINT RightToeBase
					{
						OFFSET -5.346400 -15.068900 20.645000
						CHANNELS 3 Xrotation Yrotation Zrotation
						JOINT RightToe_End
						{
							OFFSET -2.754700 0.931300 11.300900
							CHANNELS 3 Xrotation Yrotation Zrotation
							End Site
							{
								OFFSET 0 0 0
							}
						}
					}
				}
			}
		}
	}
	JOINT Spine_virtual
	{
		OFFSET 0.000000 0.000000 0.000000
		CHANNELS 3 Xrotation Yrotation Zrotation
		JOINT Spine
		{
			OFFSET -0.279200 12.230698 -2.892100
			CHANNELS 3 Xrotation Yrotation Zrotation
			JOINT Spine1
			{
				OFFSET -0.232667 10.192268 -1.242267
				CHANNELS 3 Xrotation Yrotation Zrotation
				JOINT Spine1_split
				{
					OFFSET -0.232667 10.192268 -1.242267
					CHANNELS 3 Xrotation Yrotation Zrotation
					JOINT Spine2
					{
						OFFSET -0.232667 10.192268 -1.242267
						CHANNELS 3 Xrotation Yrotation Zrotation
						JOINT Neck_virtual
						{
							OFFSET 0.000000 0.000000 0.000000
							CHANNELS 3 Xrotation Yrotation Zrotation
							JOINT Neck
							{
								OFFSET -0.418800 17.814194 8.416900
								CHANNELS 3 Xrotation Yrotation Zrotation
								JOINT Head
								{
									OFFSET 0.000000 7.031097 3.806800
									CHANNELS 3 Xrotation Yrotation Zrotation
									JOINT HeadTop_End
									{
										OFFSET 0.000000 24.646606 12.978600
										CHANNELS 3 Xrotation Yrotation Zrotation
										End Site
										{
											OFFSET 0 0 0
										}
									}
								}
							}
						}
						JOINT LeftShoulder_virtual
						{
							OFFSET 0.000000 0.000000 0.000000
							CHANNELS 3 Xrotation Yrotation Zrotation
							JOINT LeftShoulder
							{
								OFFSET 8.476499 7.247704 -3.868750
								CHANNELS 3 Xrotation Yrotation Zrotation
								JOINT LeftShoulder_split
								{
									OFFSET 8.476499 7.247704 -3.868750
									CHANNELS 3 Xrotation Yrotation Zrotation
									JOINT LeftArm
									{
										OFFSET 9.308998 -2.777710 0.208600
										CHANNELS 3 Xrotation Yrotation Zrotation
										JOINT LeftForeArm
										{
											OFFSET 29.972298 0.000000 0.000000
											CHANNELS 3 Xrotation Yrotation Zrotation
											JOINT LeftHand
											{
												OFFSET 26.026505 0.000000 0.000000
												CHANNELS 3 Xrotation Yrotation Zrotation
												End Site
												{
													OFFSET 0 0 0
												}
											}
										}
									}
								}
							}
						}
						JOINT RightShoulder_virtual
						{
							OFFSET 0.000000 0.000000 0.000000
							CHANNELS 3 Xrotation Yrotation Zrotation
							JOINT RightShoulder
							{
								OFFSET -7.570500 7.247704 -3.868750
								CHANNELS 3 Xrotation Yrotation Zrotation
								JOINT RightShoulder_split
								{
									OFFSET -7.570500 7.247704 -3.868750
									CHANNELS 3 Xrotation Yrotation Zrotation
									JOINT RightArm
									{
										OFFSET -9.308998 -2.777710 0.208500
										CHANNELS 3 Xrotation Yrotation Zrotation
										JOINT RightForeArm
										{
											OFFSET -29.972300 0.000000 0.000000
											CHANNELS 3 Xrotation Yrotation Zrotation
											JOINT RightHand
											{
												OFFSET -26.026505 0.000000 0.000000
												CHANNELS 3 Xrotation Yrotation Zrotation
												End Site
												{
													OFFSET 0 0 0
												}
											}
										}
									}
								}
							}
						}
					}
				}
			}
		}
	}
}
MOTION
Frames: 4
Frame Time: 0.03333333
12.107871 66.696960 -4.268240 0.000000 0.000000 0.000000 16.331546 -81.078416 16.936405 -38.106448 -16.923575 32.129049 47.266190 -10.456816 9.826158 -10.578897 -2.698639 -29.695917 -1.719807 1.148540 -2.449138 0.000000 0.000000 0.000000 13.561797 -81.344493 15.391094 -11.346948 10.899067 -40.751832 41.755696 12.922521 -9.491975 -18.840148 -1.873101 30.831549 -11.864472 1.274655 0.708050 0.000000 0.000000 0.000000 20.722960 -77.767646 21.000716 1.704055 5.154382 3.362986 0.931499 3.508984 1.146751 1.671445 -2.512779 1.108391 0.000000 0.000000 0.000000 0.992181 3.318512 0.987500 -2.912928 7.943769 -1.537166 0.997529 38.629941 -4.443818 0.000000 0.000000 0.000000 0.950329 3.589217 1.062993 1.282982 10.100096 -9.998272 -2.738972 -1.633766 -2.056518 -11.143740 11.606058 -65.872810 -179.836449 -64.197119 -177.093432 0.000000 0.000000 0.000000 1.788100 3.737474 0.583684 1.814246 9.490155 10.362813 -1.006123 3.212248 3.214795 -15.397780 33.922893 47.568607 -178.029987 73.555673 177.636486 0.000000 0.000000 0.000000 
12.004467 66.089943 -4.131336 0.000000 0.000000 0.000000 10.779473 -80.631182 11.240420 -38.902340 -16.315616 32.021809 46.617257 -11.578715 10.859662 -10.455749 -5.469671 -30.355505 -3.014755 1.269711 -2.123717 0.000000 0.000000 0.000000 8.952612 -79.715315 10.534088 -9.840070 8.677276 -40.120821 42.542322 11.500515 -10.158459 -18.696343 -3.332688 29.811460 -12.399266 0.881522 2.203433 0.000000 0.000000 0.000000 18.686096 -76.890896 18.563727 1.232013 5.407500 3.245320 0.841799 3.627420 1.161149 1.550464 -3.399290 1.152446 0.000000 0.000000 0.000000 0.819600 3.465951 0.959814 -2.331974 7.538769 -1.582422 1.805968 37.413819 -4.261907 0.000000 0.000000 0.000000 0.954002 3.652224 1.100450 1.137676 9.970197 -8.999540 -2.183042 -1.345201 -3.204420 -9.208944 8.958231 -66.043544 179.731838 -64.116236 -177.305386 0.000000 0.000000 0.000000 1.483001 3.825923 0.622292 1.868430 8.995995 9.584910 -1.314295 4.022078 3.329378 -13.577059 32.784515 47.123606 -177.216881 72.026367 176.687828 0.000000 0.000000 0.000000 
11.798621 68.816658 -4.024971 0.000000 0.000000 0.000000 6.503113 -77.943189 6.834651 -39.416660 -14.881990 30.720343 41.174610 -13.819568 10.745609 -6.536523 -10.367609 -31.761548 -3.585492 1.164567 -1.281009 0.000000 0.000000 0.000000 6.594791 -76.320944 8.109954 -8.707310 6.035022 -38.546856 41.365002 10.615279 -10.885770 -14.320902 -3.314300 29.866624 -17.063081 0.082587 4.100671 0.000000 0.000000 0.000000 14.700230 -74.780763 14.280066 0.864529 5.422386 3.172451 0.611012 3.625766 1.087296 1.080655 -4.087392 1.147129 0.000000 0.000000 0.000000 0.598405 3.485151 0.873342 -1.692572 7.095616 -1.605769 2.679660 35.483557 -3.570345 0.000000 0.000000 0.000000 0.822938 3.612792 1.054233 0.989233 9.416783 -7.580790 -1.286935 -0.819822 -4.006679 -7.292054 4.850169 -64.333538 179.561042 -63.718698 -177.576312 0.000000 0.000000 0.000000 1.085958 3.774362 0.592974 1.838431 8.454723 8.643119 -1.662753 4.682889 3.251815 -11.135509 30.604534 46.245722 -177.252917 69.391710 176.556237 0.000000 0.000000 0.000000 
11.476454 74.232941 -4.090136 0.000000 0.000000 0.000000 4.817434 -73.576068 5.032256 -38.904553 -12.479241 28.765062 32.337032 -15.760054 9.038049 0.172379 -15.549967 -31.947899 -2.968066 0.905756 -0.327226 0.000000 0.000000 0.000000 5.357637 -71.684024 6.874413 -8.160557 3.452417 -36.283659 38.983004 10.454677 -11.496358 -7.822403 -2.002650 30.587964 -23.363531 -1.153368 5.863885 0.000000 0.000000 0.000000 10.459663 -71.497184 10.008253 0.720440 5.209662 3.148415 0.343720 3.514250 0.950694 0.520824 -4.053150 1.184121 0.000000 0.000000 0.000000 0.365632 3.382032 0.757527 -1.147006 6.639901 -1.645542 3.355181 33.050565 -2.555296 0.000000 0.000000 0.000000 0.592423 3.487018 0.965338 0.913803 8.463817 -6.183884 -0.349730 -0.244344 -4.393549 -5.591242 0.053308 -61.254783 179.749023 -63.166805 -177.703217 0.000000 0.000000 0.000000 0.711757 3.607533 0.507362 1.705412 7.951457 7.658652 -2.123289 4.914214 2.945088 -8.506689 27.637435 44.843856 -177.818333 66.735852 176.915232 0.000000 0.000000 0.000000 
